<svg xmlns="http://www.w3.org/2000/svg" xmlns:xlink="http://www.w3.org/1999/xlink" width="500" zoomAndPan="magnify" viewBox="0 0 375 374.999991" height="500" preserveAspectRatio="xMidYMid meet" version="1.0"><defs><filter x="0%" y="0%" width="100%" height="100%" id="720151a936"><feColorMatrix values="0 0 0 0 1 0 0 0 0 1 0 0 0 0 1 0 0 0 1 0" color-interpolation-filters="sRGB"/></filter><g/><mask id="cc6eb1fc68"><g filter="url(#720151a936)"><rect x="-37.5" width="450" fill="#000000" y="-37.499999" height="449.999989" fill-opacity="0.1098"/></g></mask><clipPath id="41a8e138c7"><rect x="0" width="375" y="0" height="375"/></clipPath></defs><g mask="url(#cc6eb1fc68)"><g transform="matrix(1, 0, 0, 1, 0, 0)"><g clip-path="url(#41a8e138c7)"><path fill="#aa96da" d="M 187.5 3.75 C 193.800781 3.75 200.175781 8.175781 206.398438 16.875 C 212.851562 25.949219 218.699219 39.148438 223.800781 55.949219 C 234.375 91.050781 240.148438 137.699219 240.148438 187.425781 C 240.148438 237.148438 234.375 283.875 223.800781 318.898438 C 218.773438 335.699219 212.851562 348.898438 206.398438 357.976562 C 200.175781 366.675781 193.800781 371.101562 187.5 371.101562 C 181.199219 371.101562 174.824219 366.675781 168.601562 357.976562 C 162.148438 348.898438 156.300781 335.699219 151.199219 318.898438 C 140.625 283.800781 134.851562 237.148438 134.851562 187.425781 C 134.851562 137.699219 140.625 90.976562 151.199219 55.949219 C 156.226562 39.148438 162.148438 25.949219 168.601562 16.875 C 174.824219 8.175781 181.125 3.75 187.5 3.75 M 187.5 0 C 156.375 0 131.101562 83.925781 131.101562 187.5 C 131.101562 291.074219 156.375 375 187.5 375 C 218.625 375 243.898438 291.074219 243.898438 187.5 C 243.898438 83.925781 218.625 0 187.5 0 Z M 302.925781 48.976562 L 302.925781 52.726562 C 309.300781 52.726562 314.175781 54.375 317.398438 57.523438 C 321.898438 62.023438 323.25 69.601562 321.449219 80.175781 C 319.574219 91.199219 314.398438 104.625 306.074219 120.074219 C 288.75 152.324219 259.800781 189.449219 224.699219 224.625 C 167.324219 282 104.476562 322.125 72 322.125 C 65.625 322.125 60.75 320.476562 57.523438 317.324219 C 53.023438 312.824219 51.675781 305.25 53.476562 294.675781 C 55.351562 283.648438 60.523438 270.226562 68.851562 254.773438 C 86.175781 222.523438 115.125 185.398438 150.226562 150.226562 C 207.601562 92.851562 270.449219 52.726562 302.925781 52.726562 L 302.925781 48.976562 M 302.925781 48.976562 C 270.074219 48.976562 207.523438 87.675781 147.601562 147.601562 C 74.398438 220.800781 32.851562 298.050781 54.898438 320.023438 C 58.875 324 64.726562 325.949219 72 325.949219 C 104.851562 325.949219 167.398438 287.25 227.324219 227.324219 C 300.523438 154.125 342 76.875 320.023438 54.898438 C 316.050781 50.925781 310.199219 48.976562 302.925781 48.976562 Z M 187.5 134.851562 C 237.226562 134.851562 283.949219 140.625 318.976562 151.199219 C 335.773438 156.226562 348.976562 162.148438 358.050781 168.601562 C 366.75 174.824219 371.175781 181.199219 371.175781 187.5 C 371.175781 193.800781 366.75 200.175781 358.050781 206.398438 C 348.976562 212.851562 335.773438 218.699219 318.976562 223.800781 C 283.875 234.375 237.226562 240.148438 187.5 240.148438 C 137.773438 240.148438 91.050781 234.375 56.023438 223.800781 C 39.226562 218.773438 26.023438 212.851562 16.949219 206.398438 C 8.175781 200.175781 3.75 193.800781 3.75 187.5 C 3.75 181.199219 8.175781 174.824219 16.875 168.601562 C 25.949219 162.148438 39.148438 156.300781 55.949219 151.199219 C 91.050781 140.625 137.773438 134.851562 187.5 134.851562 M 187.5 131.101562 C 83.925781 131.101562 0 156.300781 0 187.5 C 0 218.699219 83.925781 243.898438 187.5 243.898438 C 291.074219 243.898438 375 218.625 375 187.5 C 375 156.375 291 131.101562 187.5 131.101562 Z M 72 52.726562 C 104.476562 52.726562 167.25 92.851562 224.699219 150.226562 C 259.875 185.398438 288.75 222.523438 306.074219 254.773438 C 314.398438 270.226562 319.574219 283.726562 321.449219 294.675781 C 323.25 305.25 321.898438 312.898438 317.398438 317.324219 C 314.175781 320.550781 309.375 322.125 302.925781 322.125 C 270.449219 322.125 207.675781 282 150.226562 224.625 C 115.050781 189.449219 86.175781 152.324219 68.851562 120.074219 C 60.523438 104.625 55.351562 91.125 53.476562 80.175781 C 51.675781 69.601562 53.023438 61.949219 57.523438 57.523438 C 60.75 54.375 65.625 52.726562 72 52.726562 M 72 48.976562 C 64.726562 48.976562 58.875 50.851562 54.898438 54.898438 C 32.851562 76.949219 74.398438 154.125 147.601562 227.324219 C 207.523438 287.25 270.074219 325.949219 302.925781 325.949219 C 310.199219 325.949219 316.050781 324.074219 320.023438 320.023438 C 342.074219 297.976562 300.523438 220.800781 227.324219 147.601562 C 167.476562 87.675781 104.851562 48.976562 72 48.976562 Z M 72 48.976562 " fill-opacity="1" fill-rule="nonzero"/></g></g></g><g fill="#aa96da" fill-opacity="1"><g transform="translate(54.993692, 218.249986)"><g><path d="M 26.40625 1.09375 C 21.65625 1.09375 17.535156 0.128906 14.046875 -1.796875 C 10.554688 -3.734375 7.875 -6.476562 6 -10.03125 C 4.125 -13.59375 3.1875 -17.820312 3.1875 -22.71875 C 3.1875 -27.59375 4.125 -31.804688 6 -35.359375 C 7.875 -38.910156 10.546875 -41.644531 14.015625 -43.5625 C 17.492188 -45.476562 21.613281 -46.4375 26.375 -46.4375 C 29.789062 -46.4375 32.96875 -45.820312 35.90625 -44.59375 C 38.84375 -43.363281 41.335938 -41.535156 43.390625 -39.109375 C 45.453125 -36.691406 46.863281 -33.691406 47.625 -30.109375 L 35.78125 -27.59375 C 35.164062 -30.8125 34.046875 -33.222656 32.421875 -34.828125 C 30.796875 -36.441406 28.75 -37.25 26.28125 -37.25 C 22.894531 -37.25 20.382812 -35.90625 18.75 -33.21875 C 17.113281 -30.53125 16.296875 -26.972656 16.296875 -22.546875 C 16.296875 -18.148438 17.109375 -14.644531 18.734375 -12.03125 C 20.359375 -9.414062 22.890625 -8.109375 26.328125 -8.109375 C 28.710938 -8.109375 30.722656 -8.828125 32.359375 -10.265625 C 33.992188 -11.710938 35.191406 -13.914062 35.953125 -16.875 L 47.40625 -14.734375 C 46.84375 -11.992188 45.875 -9.625 44.5 -7.625 C 43.132812 -5.625 41.492188 -3.984375 39.578125 -2.703125 C 37.660156 -1.429688 35.582031 -0.484375 33.34375 0.140625 C 31.101562 0.773438 28.789062 1.09375 26.40625 1.09375 Z M 26.40625 1.09375 "/></g></g></g><g fill="#aa96da" fill-opacity="1"><g transform="translate(103.36581, 218.249986)"><g><path d="M 5.921875 0 L 5.921875 -45.359375 L 18.015625 -45.359375 L 18.015625 -35.140625 L 17.515625 -36.484375 C 18.941406 -39.847656 20.957031 -42.347656 23.5625 -43.984375 C 26.164062 -45.617188 29.003906 -46.4375 32.078125 -46.4375 C 32.953125 -46.4375 33.835938 -46.367188 34.734375 -46.234375 C 35.628906 -46.097656 36.523438 -45.859375 37.421875 -45.515625 L 36.453125 -34.859375 C 34.628906 -35.359375 32.878906 -35.609375 31.203125 -35.609375 C 29.828125 -35.609375 28.390625 -35.367188 26.890625 -34.890625 C 25.398438 -34.421875 24.015625 -33.585938 22.734375 -32.390625 C 21.460938 -31.203125 20.425781 -29.523438 19.625 -27.359375 C 18.832031 -25.191406 18.4375 -22.425781 18.4375 -19.0625 L 18.4375 0 Z M 5.921875 0 "/></g></g></g><g fill="#aa96da" fill-opacity="1"><g transform="translate(141.030895, 218.249986)"><g><path d="M 0.375 0 L 23.5625 -60.46875 L 40.0625 -60.46875 L 63.15625 0 L 49.21875 0 L 31.75 -51.0625 L 14.3125 0 Z M 15.53125 -16.546875 L 15.53125 -26.921875 L 47.875 -26.921875 L 47.875 -16.546875 Z M 15.53125 -16.546875 "/></g></g></g><g fill="#aa96da" fill-opacity="1"><g transform="translate(202.79731, 218.249986)"><g><path d="M 3.484375 0 L 3.484375 -10.703125 L 11.84375 -10.703125 L 11.84375 -49.765625 L 3.484375 -49.765625 L 3.484375 -60.46875 L 33.171875 -60.46875 L 33.171875 -49.765625 L 24.8125 -49.765625 L 24.8125 -10.703125 L 33.171875 -10.703125 L 33.171875 0 Z M 3.484375 0 "/></g></g></g><g fill="#aa96da" fill-opacity="1"><g transform="translate(237.733156, 218.249986)"><g><path d="M 18.8125 0 C 15.457031 0 12.875 -0.816406 11.0625 -2.453125 C 9.257812 -4.085938 8.359375 -6.445312 8.359375 -9.53125 L 8.359375 -36.203125 L 1.890625 -36.203125 L 1.890625 -45.359375 L 8.359375 -45.359375 L 8.359375 -54.25 L 20.875 -57.28125 L 20.875 -45.359375 L 29.265625 -45.359375 L 29.265625 -36.203125 L 20.875 -36.203125 L 20.875 -11.5 C 20.875 -10.582031 21.003906 -9.960938 21.265625 -9.640625 C 21.535156 -9.316406 22.101562 -9.15625 22.96875 -9.15625 L 29.90625 -9.15625 L 29.90625 0 Z M 18.8125 0 "/></g></g></g><g fill="#aa96da" fill-opacity="1"><g transform="translate(268.680095, 218.249986)"><g><path d="M 26.578125 1.09375 C 22.128906 1.09375 18.132812 0.128906 14.59375 -1.796875 C 11.050781 -3.734375 8.25 -6.484375 6.1875 -10.046875 C 4.132812 -13.617188 3.109375 -17.84375 3.109375 -22.71875 C 3.109375 -27.5625 4.125 -31.757812 6.15625 -35.3125 C 8.1875 -38.875 10.957031 -41.617188 14.46875 -43.546875 C 17.976562 -45.472656 21.988281 -46.4375 26.5 -46.4375 C 28.988281 -46.4375 31.515625 -46.054688 34.078125 -45.296875 C 36.640625 -44.546875 39 -43.210938 41.15625 -41.296875 C 43.3125 -39.378906 45.046875 -36.707031 46.359375 -33.28125 C 47.671875 -29.851562 48.328125 -25.476562 48.328125 -20.15625 L 11.125 -20.15625 L 11.125 -27.296875 L 37.15625 -27.296875 L 35.859375 -25.0625 C 35.640625 -28.09375 35.082031 -30.53125 34.1875 -32.375 C 33.289062 -34.21875 32.15625 -35.5625 30.78125 -36.40625 C 29.40625 -37.25 27.863281 -37.671875 26.15625 -37.671875 C 23.945312 -37.671875 22.097656 -37.039062 20.609375 -35.78125 C 19.128906 -34.519531 18.019531 -32.757812 17.28125 -30.5 C 16.539062 -28.25 16.171875 -25.640625 16.171875 -22.671875 C 16.171875 -18.191406 17.015625 -14.648438 18.703125 -12.046875 C 20.398438 -9.441406 23 -8.140625 26.5 -8.140625 C 28.769531 -8.140625 30.722656 -8.726562 32.359375 -9.90625 C 33.992188 -11.082031 35.242188 -12.875 36.109375 -15.28125 L 47.453125 -12.390625 C 46.390625 -9.253906 44.78125 -6.691406 42.625 -4.703125 C 40.46875 -2.710938 37.992188 -1.25 35.203125 -0.3125 C 32.421875 0.625 29.546875 1.09375 26.578125 1.09375 Z M 26.578125 1.09375 "/></g></g></g></svg>