<svg xmlns="http://www.w3.org/2000/svg" width="500" height="500" version="1.0" viewBox="0 0 375 375"><defs><clipPath id="d"><path d="M.45.45H250.2V250.2H.45Zm0 0"/></clipPath><clipPath id="c"><path d="M0 0h251v251H0z"/></clipPath><filter id="a" width="100%" height="100%" x="0%" y="0%"><feColorMatrix color-interpolation-filters="sRGB" values="0 0 0 0 1 0 0 0 0 1 0 0 0 0 1 0 0 0 1 0"/></filter><mask id="b"><g filter="url(#a)"><path fill-opacity=".11" d="M-37.5-37.5h450v450h-450z"/></g></mask></defs><path fill="#fff" d="M-37.5-37.5h450v450h-450z"/><path fill="#040209" d="M-37.5-37.5h450v450h-450z"/><g mask="url(#b)"><g clip-path="url(#c)" transform="translate(62 62)"><g clip-path="url(#d)"><path fill="#aa96da" d="M125.324 2.945c4.196 0 8.442 2.946 12.586 8.742 4.297 6.043 8.192 14.836 11.59 26.024 7.043 23.375 10.887 54.445 10.887 87.562 0 33.118-3.844 64.235-10.887 87.563-3.348 11.187-7.293 19.98-11.59 26.023-4.144 5.793-8.39 8.743-12.586 8.743-4.195 0-8.441-2.95-12.59-8.743-4.293-6.043-8.191-14.836-11.586-26.023-7.043-23.379-10.89-54.445-10.89-87.563 0-33.117 3.847-64.234 10.89-87.562 3.344-11.188 7.293-19.98 11.586-26.023 4.149-5.797 8.344-8.743 12.59-8.743m0-2.496c-20.73 0-37.562 55.895-37.562 124.875 0 68.98 16.832 124.875 37.562 124.875 20.727 0 37.563-55.894 37.563-124.875C162.887 56.344 146.05.45 125.324.45Zm76.871 32.617v2.496c4.246 0 7.493 1.098 9.64 3.196 2.997 3 3.895 8.043 2.7 15.086-1.25 7.343-4.695 16.285-10.242 26.574-11.54 21.477-30.82 46.203-54.195 69.629-38.211 38.215-80.07 64.937-101.7 64.937-4.246 0-7.492-1.101-9.64-3.199-2.996-2.996-3.895-8.039-2.696-15.082 1.25-7.344 4.696-16.285 10.239-26.574 11.539-21.48 30.82-46.203 54.195-69.633 38.215-38.21 80.07-64.933 101.7-64.933v-2.497m0 0c-21.88 0-63.536 25.774-103.446 65.684C50 147.5 22.324 198.95 37.012 213.586c2.648 2.644 6.543 3.945 11.386 3.945 21.88 0 63.54-25.773 103.45-65.683 48.75-48.754 76.37-100.2 61.738-114.836-2.649-2.649-6.547-3.946-11.39-3.946Zm-76.872 57.192c33.117 0 64.235 3.847 87.563 10.89 11.187 3.344 19.976 7.293 26.023 11.586 5.793 4.149 8.738 8.395 8.738 12.59 0 4.196-2.945 8.442-8.738 12.586-6.047 4.297-14.836 8.192-26.023 11.59-23.38 7.043-54.446 10.887-87.563 10.887-33.117 0-64.238-3.844-87.562-10.887-11.192-3.348-19.98-7.293-26.024-11.59-5.847-4.144-8.793-8.39-8.793-12.586 0-4.195 2.946-8.441 8.742-12.59 6.043-4.293 14.836-8.191 26.024-11.586 23.375-7.043 54.496-10.89 87.613-10.89m0-2.496C56.344 87.762.45 104.543.45 125.324c0 20.778 55.895 37.563 124.875 37.563 68.98 0 124.875-16.836 124.875-37.563 0-20.73-55.945-37.562-124.875-37.562Zm-76.926-52.2c21.63 0 63.438 26.723 101.7 64.934 23.425 23.43 42.656 48.152 54.195 69.633 5.547 10.289 8.992 19.281 10.242 26.574 1.195 7.043.297 12.137-2.7 15.082-2.148 2.149-5.343 3.2-9.64 3.2-21.629 0-63.437-26.723-101.699-64.938C77.07 126.62 57.84 101.895 46.301 80.418c-5.543-10.29-8.989-19.281-10.239-26.574-1.199-7.043-.3-12.137 2.696-15.086 2.148-2.098 5.394-3.196 9.64-3.196m0-2.496c-4.843 0-8.738 1.246-11.386 3.946C22.324 51.695 50 103.094 98.75 151.848c39.91 39.91 81.566 65.683 103.445 65.683 4.844 0 8.743-1.25 11.39-3.945 14.685-14.688-12.987-66.086-61.737-114.836-39.864-39.91-81.57-65.684-103.45-65.684Zm0 0"/></g></g></g><path fill="#aa96da" d="M117.49 208.094c-3.137 0-5.856-.637-8.157-1.907-2.304-1.28-4.074-3.093-5.312-5.437-1.23-2.344-1.844-5.129-1.844-8.36 0-3.218.613-6 1.844-8.343 1.238-2.344 3.004-4.145 5.297-5.406 2.289-1.27 5.008-1.907 8.156-1.907 2.25 0 4.344.407 6.281 1.22a12.975 12.975 0 0 1 4.953 3.608c1.352 1.594 2.282 3.575 2.782 5.938l-7.813 1.672c-.406-2.125-1.148-3.719-2.219-4.781-1.074-1.063-2.421-1.594-4.046-1.594-2.23 0-3.887.887-4.97 2.656-1.085 1.774-1.624 4.121-1.624 7.047 0 2.898.535 5.21 1.61 6.937 1.07 1.731 2.741 2.594 5.015 2.594 1.57 0 2.894-.472 3.969-1.422 1.082-.957 1.875-2.414 2.375-4.375l7.562 1.422c-.367 1.805-1 3.367-1.906 4.688a11.965 11.965 0 0 1-3.266 3.25 14.467 14.467 0 0 1-4.11 1.875c-1.48.414-3.007.625-4.577.625ZM135.892 207.375v-29.922h7.985v6.734l-.328-.89c.937-2.219 2.265-3.863 3.984-4.938a10.357 10.357 0 0 1 5.625-1.625c.57 0 1.149.047 1.734.141a8.34 8.34 0 0 1 1.782.469l-.64 7.031c-1.2-.332-2.352-.5-3.454-.5-.906 0-1.855.156-2.844.469-.992.312-1.906.867-2.75 1.656-.836.781-1.515 1.89-2.047 3.328-.523 1.43-.78 3.25-.78 5.469v12.578ZM159.136 207.375v-7.063h5.516v-25.78h-5.516v-7.063h19.594v7.062h-5.515v25.781h5.515v7.063ZM180.142 207.375l15.297-39.906h10.89l15.235 39.906h-9.203l-11.516-33.703-11.5 33.703Zm10-10.922v-6.844h21.344v6.844ZM233.07 207.375c-2.218 0-3.929-.535-5.124-1.61-1.188-1.081-1.782-2.644-1.782-4.687v-17.594H221.9v-6.03h4.265v-5.876l8.25-2v7.875h5.547v6.031h-5.547v16.297c0 .617.086 1.028.266 1.235.176.21.55.312 1.125.312h4.578v6.047ZM258.616 208.094c-2.937 0-5.578-.637-7.922-1.907-2.336-1.28-4.183-3.097-5.547-5.453-1.355-2.351-2.03-5.132-2.03-8.343 0-3.196.663-5.97 2-8.313 1.343-2.351 3.175-4.164 5.5-5.437 2.32-1.27 4.968-1.907 7.937-1.907 1.644 0 3.312.25 5 .75 1.687.493 3.242 1.371 4.671 2.641 1.426 1.262 2.57 3.027 3.438 5.297.863 2.262 1.297 5.148 1.297 8.656h-24.547v-4.719h17.172l-.844 1.47c-.156-1.99-.531-3.595-1.125-4.813-.586-1.22-1.328-2.102-2.234-2.657-.907-.562-1.922-.843-3.047-.843-1.461 0-2.68.418-3.656 1.25-.98.836-1.715 1.996-2.204 3.484-.492 1.48-.734 3.2-.734 5.156 0 2.961.555 5.297 1.672 7.016 1.113 1.719 2.828 2.578 5.14 2.578 1.5 0 2.786-.383 3.86-1.156 1.082-.782 1.91-1.969 2.484-3.563l7.485 1.922c-.7 2.063-1.762 3.75-3.188 5.063a13.693 13.693 0 0 1-4.89 2.906 17.83 17.83 0 0 1-5.688.922Zm0 0"/></svg>
