<svg width="200" height="200" viewBox="0 0 200 200" fill="none" xmlns="http://www.w3.org/2000/svg">
<g clip-path="url(#clip0_13_415)">
<mask id="mask0_13_415" style="mask-type:luminance" maskUnits="userSpaceOnUse" x="-20" y="-20" width="240" height="240">
<path d="M220 -20H-20V220H220V-20Z" fill="black" fill-opacity="0.1098"/>
</mask>
<g mask="url(#mask0_13_415)">
<mask id="mask1_13_415" style="mask-type:luminance" maskUnits="userSpaceOnUse" x="0" y="0" width="200" height="200">
<path d="M200 0H0V200H200V0Z" fill="white"/>
</mask>
<g mask="url(#mask1_13_415)">
<path d="M100 2C103.36 2 106.76 4.36042 110.079 9C113.521 13.8396 116.64 20.8792 119.36 29.8396C125 48.5604 128.079 73.4396 128.079 99.9604C128.079 126.479 125 151.4 119.36 170.079C116.679 179.04 113.521 186.079 110.079 190.921C106.76 195.56 103.36 197.921 100 197.921C96.6396 197.921 93.2396 195.56 89.9208 190.921C86.4792 186.079 83.3604 179.04 80.6396 170.079C75 151.36 71.9208 126.479 71.9208 99.9604C71.9208 73.4396 75 48.5208 80.6396 29.8396C83.3208 20.8792 86.4792 13.8396 89.9208 9C93.2396 4.36042 96.6 2 100 2ZM100 0C83.4 0 69.9208 44.7604 69.9208 100C69.9208 155.24 83.4 200 100 200C116.6 200 130.079 155.24 130.079 100C130.079 44.7604 116.6 0 100 0ZM161.56 28.1208C164.96 28.1208 167.56 29 169.279 30.6792C171.679 33.0792 172.4 37.1208 171.44 42.7604C170.44 48.6396 167.679 55.8 163.24 64.0396C154 81.2396 138.56 101.04 119.84 119.8C89.2396 150.4 55.7208 171.8 38.4 171.8C35 171.8 32.4 170.921 30.6792 169.24C28.2792 166.84 27.5604 162.8 28.5208 157.16C29.5208 151.279 32.2792 144.121 36.7208 135.879C45.9604 118.679 61.4 98.8792 80.1208 80.1208C110.721 49.5208 144.24 28.1208 161.56 28.1208ZM161.56 26.1208C144.04 26.1208 110.679 46.7604 78.7208 78.7208C39.6792 117.76 17.5208 158.96 29.2792 170.679C31.4 172.8 34.5208 173.84 38.4 173.84C55.9208 173.84 89.2792 153.2 121.24 121.24C160.279 82.2 182.4 41 170.679 29.2792C168.56 27.1604 165.44 26.1208 161.56 26.1208ZM100 71.9208C126.521 71.9208 151.44 75 170.121 80.6396C179.079 83.3208 186.121 86.4792 190.96 89.9208C195.6 93.2396 197.96 96.6396 197.96 100C197.96 103.36 195.6 106.76 190.96 110.079C186.121 113.521 179.079 116.64 170.121 119.36C151.4 125 126.521 128.079 100 128.079C73.4792 128.079 48.5604 125 29.8792 119.36C20.9208 116.679 13.8792 113.521 9.03958 110.079C4.36042 106.76 2 103.36 2 100C2 96.6396 4.36042 93.2396 9 89.9208C13.8396 86.4792 20.8792 83.3604 29.8396 80.6396C48.5604 75 73.4792 71.9208 100 71.9208ZM100 69.9208C44.7604 69.9208 0 83.3604 0 100C0 116.64 44.7604 130.079 100 130.079C155.24 130.079 200 116.6 200 100C200 83.4 155.2 69.9208 100 69.9208ZM38.4 28.1208C55.7208 28.1208 89.2 49.5208 119.84 80.1208C138.6 98.8792 154 118.679 163.24 135.879C167.679 144.121 170.44 151.321 171.44 157.16C172.4 162.8 171.679 166.879 169.279 169.24C167.56 170.96 165 171.8 161.56 171.8C144.24 171.8 110.76 150.4 80.1208 119.8C61.3604 101.04 45.9604 81.2396 36.7208 64.0396C32.2792 55.8 29.5208 48.6 28.5208 42.7604C27.5604 37.1208 28.2792 33.0396 30.6792 30.6792C32.4 29 35 28.1208 38.4 28.1208ZM38.4 26.1208C34.5208 26.1208 31.4 27.1208 29.2792 29.2792C17.5208 41.0396 39.6792 82.2 78.7208 121.24C110.679 153.2 144.04 173.84 161.56 173.84C165.44 173.84 168.56 172.84 170.679 170.679C182.44 158.921 160.279 117.76 121.24 78.7208C89.3208 46.7604 55.9208 26.1208 38.4 26.1208Z" fill="#CC66FF"/>
</g>
</g>
<path d="M43.4133 116.983C40.88 116.983 38.6821 116.469 36.8216 115.442C34.9591 114.408 33.53 112.946 32.53 111.05C31.53 109.15 31.03 106.896 31.03 104.283C31.03 101.683 31.53 99.4375 32.53 97.5417C33.53 95.6479 34.955 94.1896 36.805 93.1667C38.6591 92.1458 40.8571 91.6333 43.3966 91.6333C45.2175 91.6333 46.9133 91.9625 48.48 92.6167C50.0466 93.2729 51.3758 94.2479 52.4716 95.5417C53.5716 96.8312 54.3237 98.4312 54.73 100.342L48.4133 101.683C48.0841 99.9667 47.4883 98.6812 46.6216 97.825C45.755 96.9646 44.6633 96.5333 43.3466 96.5333C41.5404 96.5333 40.2008 97.25 39.33 98.6833C38.4571 100.117 38.0216 102.015 38.0216 104.375C38.0216 106.721 38.455 108.59 39.3216 109.983C40.1883 111.379 41.5383 112.075 43.3716 112.075C44.6425 112.075 45.7154 111.692 46.5883 110.925C47.4591 110.154 48.0987 108.979 48.505 107.4L54.6133 108.542C54.3133 110.004 53.7966 111.267 53.0633 112.333C52.3341 113.4 51.4591 114.275 50.4383 114.958C49.4154 115.637 48.3071 116.142 47.1133 116.475C45.9175 116.812 44.6841 116.983 43.4133 116.983Z" fill="#CC66FF"/>
<path d="M58.2868 116.4V92.2083H64.7368V97.6583L64.4701 96.9417C65.2305 95.1479 66.3055 93.8146 67.6951 92.9417C69.0826 92.0708 70.5972 91.6333 72.2368 91.6333C72.7034 91.6333 73.1743 91.6708 73.6534 91.7417C74.1305 91.8146 74.6076 91.9417 75.0868 92.125L74.5701 97.8083C73.5972 97.5417 72.6638 97.4083 71.7701 97.4083C71.0368 97.4083 70.2701 97.5375 69.4701 97.7917C68.6743 98.0417 67.9368 98.4875 67.2534 99.125C66.5743 99.7583 66.0222 100.654 65.5951 101.808C65.1722 102.965 64.9618 104.44 64.9618 106.233V116.4H58.2868Z" fill="#CC66FF"/>
<path d="M75.4165 116.4L87.7831 84.15H96.5831L108.9 116.4H101.466L92.1498 89.1667L82.8498 116.4H75.4165ZM83.4998 107.575V102.042H100.75V107.575H83.4998Z" fill="#CC66FF"/>
<path d="M110.017 116.4V110.692H114.475V89.8583H110.017V84.15H125.85V89.8583H121.392V110.692H125.85V116.4H110.017Z" fill="#CC66FF"/>
<path d="M136.824 116.4C135.035 116.4 133.658 115.965 132.691 115.092C131.729 114.221 131.249 112.963 131.249 111.317V97.0917H127.799V92.2083H131.249V87.4667L137.924 85.85V92.2083H142.399V97.0917H137.924V110.267C137.924 110.756 137.993 111.088 138.133 111.258C138.276 111.431 138.579 111.517 139.041 111.517H142.741V116.4H136.824Z" fill="#CC66FF"/>
<path d="M157.471 116.983C155.098 116.983 152.967 116.469 151.079 115.442C149.19 114.408 147.696 112.942 146.596 111.042C145.5 109.137 144.954 106.883 144.954 104.283C144.954 101.7 145.496 99.4625 146.579 97.5667C147.663 95.6667 149.14 94.2042 151.013 93.175C152.884 92.1479 155.023 91.6333 157.429 91.6333C158.756 91.6333 160.104 91.8375 161.471 92.2417C162.838 92.6417 164.096 93.3542 165.246 94.375C166.396 95.3979 167.321 96.8229 168.021 98.65C168.721 100.479 169.071 102.812 169.071 105.65H149.229V101.842H163.113L162.421 103.033C162.304 101.417 162.006 100.117 161.529 99.1333C161.05 98.15 160.446 97.4333 159.713 96.9833C158.979 96.5333 158.156 96.3083 157.246 96.3083C156.067 96.3083 155.081 96.6458 154.288 97.3167C153.498 97.9896 152.906 98.9292 152.513 100.133C152.117 101.333 151.921 102.725 151.921 104.308C151.921 106.698 152.371 108.587 153.271 109.975C154.175 111.365 155.563 112.058 157.429 112.058C158.64 112.058 159.681 111.746 160.554 111.117C161.425 110.49 162.092 109.533 162.554 108.25L168.604 109.792C168.038 111.465 167.179 112.831 166.029 113.892C164.879 114.954 163.559 115.733 162.071 116.233C160.588 116.733 159.054 116.983 157.471 116.983Z" fill="#CC66FF"/>
</g>
<defs>
<clipPath id="clip0_13_415">
<rect width="200" height="200" rx="8" fill="white"/>
</clipPath>
</defs>
</svg>
