<svg xmlns="http://www.w3.org/2000/svg" xmlns:xlink="http://www.w3.org/1999/xlink" width="500" zoomAndPan="magnify" viewBox="0 0 375 374.999991" height="500" preserveAspectRatio="xMidYMid meet" version="1.0"><defs><filter x="0%" y="0%" width="100%" height="100%" id="f257799f6b"><feColorMatrix values="0 0 0 0 1 0 0 0 0 1 0 0 0 0 1 0 0 0 1 0" color-interpolation-filters="sRGB"/></filter><g/><mask id="b60aa8ec44"><g filter="url(#f257799f6b)"><rect x="-37.5" width="450" fill="#000000" y="-37.499999" height="449.999989" fill-opacity="0.098"/></g></mask><clipPath id="dbfb430ace"><path d="M 0 0 L 374.949219 0 L 374.949219 374.949219 L 0 374.949219 Z M 0 0 " clip-rule="nonzero"/></clipPath><clipPath id="2e3d7ead72"><rect x="0" width="375" y="0" height="375"/></clipPath></defs><g mask="url(#b60aa8ec44)"><g transform="matrix(1, 0, 0, 1, 0, 0)"><g clip-path="url(#2e3d7ead72)"><g clip-path="url(#dbfb430ace)"><path fill="#aa96da" d="M 187.449219 3.699219 C 193.746094 3.699219 200.121094 8.121094 206.347656 16.824219 C 212.796875 25.898438 218.648438 39.097656 223.746094 55.898438 C 234.324219 90.996094 240.097656 137.648438 240.097656 187.371094 C 240.097656 237.097656 234.324219 283.824219 223.746094 318.847656 C 218.722656 335.648438 212.796875 348.847656 206.347656 357.921875 C 200.121094 366.621094 193.746094 371.046875 187.449219 371.046875 C 181.148438 371.046875 174.773438 366.621094 168.546875 357.921875 C 162.097656 348.847656 156.246094 335.648438 151.148438 318.847656 C 140.574219 283.746094 134.796875 237.097656 134.796875 187.371094 C 134.796875 137.648438 140.574219 90.921875 151.148438 55.898438 C 156.171875 39.097656 162.097656 25.898438 168.546875 16.824219 C 174.773438 8.121094 181.074219 3.699219 187.449219 3.699219 M 187.449219 -0.0507812 C 156.324219 -0.0507812 131.046875 83.871094 131.046875 187.449219 C 131.046875 291.023438 156.324219 374.949219 187.449219 374.949219 C 218.574219 374.949219 243.847656 291.023438 243.847656 187.449219 C 243.847656 83.871094 218.574219 -0.0507812 187.449219 -0.0507812 Z M 302.871094 48.921875 L 302.871094 52.671875 C 309.246094 52.671875 314.121094 54.324219 317.347656 57.472656 C 321.847656 61.972656 323.199219 69.546875 321.398438 80.121094 C 319.523438 91.148438 314.347656 104.574219 306.023438 120.023438 C 288.699219 152.273438 259.746094 189.398438 224.648438 224.574219 C 167.273438 281.949219 104.421875 322.074219 71.949219 322.074219 C 65.574219 322.074219 60.699219 320.421875 57.472656 317.273438 C 52.972656 312.773438 51.621094 305.199219 53.421875 294.621094 C 55.296875 283.597656 60.472656 270.171875 68.796875 254.722656 C 86.121094 222.472656 115.074219 185.347656 150.171875 150.171875 C 207.546875 92.796875 270.398438 52.671875 302.871094 52.671875 L 302.871094 48.921875 M 302.871094 48.921875 C 270.023438 48.921875 207.472656 87.621094 147.546875 147.546875 C 74.347656 220.746094 32.796875 297.996094 54.847656 319.972656 C 58.824219 323.949219 64.671875 325.898438 71.949219 325.898438 C 104.796875 325.898438 167.347656 287.199219 227.273438 227.273438 C 300.472656 154.074219 341.949219 76.824219 319.972656 54.847656 C 315.996094 50.871094 310.148438 48.921875 302.871094 48.921875 Z M 187.449219 134.796875 C 237.171875 134.796875 283.898438 140.574219 318.921875 151.148438 C 335.722656 156.171875 348.921875 162.097656 357.996094 168.546875 C 366.699219 174.773438 371.121094 181.148438 371.121094 187.449219 C 371.121094 193.746094 366.699219 200.121094 357.996094 206.347656 C 348.921875 212.796875 335.722656 218.648438 318.921875 223.746094 C 283.824219 234.324219 237.171875 240.097656 187.449219 240.097656 C 137.722656 240.097656 90.996094 234.324219 55.972656 223.746094 C 39.171875 218.722656 25.972656 212.796875 16.898438 206.347656 C 8.121094 200.121094 3.699219 193.746094 3.699219 187.449219 C 3.699219 181.148438 8.121094 174.773438 16.824219 168.546875 C 25.898438 162.097656 39.097656 156.246094 55.898438 151.148438 C 90.996094 140.574219 137.722656 134.796875 187.449219 134.796875 M 187.449219 131.046875 C 83.871094 131.046875 -0.0507812 156.246094 -0.0507812 187.449219 C -0.0507812 218.648438 83.871094 243.847656 187.449219 243.847656 C 291.023438 243.847656 374.949219 218.574219 374.949219 187.449219 C 374.949219 156.324219 290.949219 131.046875 187.449219 131.046875 Z M 71.949219 52.671875 C 104.421875 52.671875 167.199219 92.796875 224.648438 150.171875 C 259.824219 185.347656 288.699219 222.472656 306.023438 254.722656 C 314.347656 270.171875 319.523438 283.671875 321.398438 294.621094 C 323.199219 305.199219 321.847656 312.847656 317.347656 317.273438 C 314.121094 320.496094 309.324219 322.074219 302.871094 322.074219 C 270.398438 322.074219 207.621094 281.949219 150.171875 224.574219 C 114.996094 189.398438 86.121094 152.273438 68.796875 120.023438 C 60.472656 104.574219 55.296875 91.074219 53.421875 80.121094 C 51.621094 69.546875 52.972656 61.898438 57.472656 57.472656 C 60.699219 54.324219 65.574219 52.671875 71.949219 52.671875 M 71.949219 48.921875 C 64.671875 48.921875 58.824219 50.796875 54.847656 54.847656 C 32.796875 76.898438 74.347656 154.074219 147.546875 227.273438 C 207.472656 287.199219 270.023438 325.898438 302.871094 325.898438 C 310.148438 325.898438 315.996094 324.023438 319.972656 319.972656 C 342.023438 297.921875 300.472656 220.746094 227.273438 147.546875 C 167.421875 87.621094 104.796875 48.921875 71.949219 48.921875 Z M 71.949219 48.921875 " fill-opacity="1" fill-rule="nonzero"/></g></g></g></g><g fill="#040209" fill-opacity="1"><g transform="translate(54.993692, 218.249986)"><g><path d="M 26.40625 1.09375 C 21.65625 1.09375 17.535156 0.128906 14.046875 -1.796875 C 10.554688 -3.734375 7.875 -6.476562 6 -10.03125 C 4.125 -13.59375 3.1875 -17.820312 3.1875 -22.71875 C 3.1875 -27.59375 4.125 -31.804688 6 -35.359375 C 7.875 -38.910156 10.546875 -41.644531 14.015625 -43.5625 C 17.492188 -45.476562 21.613281 -46.4375 26.375 -46.4375 C 29.789062 -46.4375 32.96875 -45.820312 35.90625 -44.59375 C 38.84375 -43.363281 41.335938 -41.535156 43.390625 -39.109375 C 45.453125 -36.691406 46.863281 -33.691406 47.625 -30.109375 L 35.78125 -27.59375 C 35.164062 -30.8125 34.046875 -33.222656 32.421875 -34.828125 C 30.796875 -36.441406 28.75 -37.25 26.28125 -37.25 C 22.894531 -37.25 20.382812 -35.90625 18.75 -33.21875 C 17.113281 -30.53125 16.296875 -26.972656 16.296875 -22.546875 C 16.296875 -18.148438 17.109375 -14.644531 18.734375 -12.03125 C 20.359375 -9.414062 22.890625 -8.109375 26.328125 -8.109375 C 28.710938 -8.109375 30.722656 -8.828125 32.359375 -10.265625 C 33.992188 -11.710938 35.191406 -13.914062 35.953125 -16.875 L 47.40625 -14.734375 C 46.84375 -11.992188 45.875 -9.625 44.5 -7.625 C 43.132812 -5.625 41.492188 -3.984375 39.578125 -2.703125 C 37.660156 -1.429688 35.582031 -0.484375 33.34375 0.140625 C 31.101562 0.773438 28.789062 1.09375 26.40625 1.09375 Z M 26.40625 1.09375 "/></g></g></g><g fill="#040209" fill-opacity="1"><g transform="translate(103.36581, 218.249986)"><g><path d="M 5.921875 0 L 5.921875 -45.359375 L 18.015625 -45.359375 L 18.015625 -35.140625 L 17.515625 -36.484375 C 18.941406 -39.847656 20.957031 -42.347656 23.5625 -43.984375 C 26.164062 -45.617188 29.003906 -46.4375 32.078125 -46.4375 C 32.953125 -46.4375 33.835938 -46.367188 34.734375 -46.234375 C 35.628906 -46.097656 36.523438 -45.859375 37.421875 -45.515625 L 36.453125 -34.859375 C 34.628906 -35.359375 32.878906 -35.609375 31.203125 -35.609375 C 29.828125 -35.609375 28.390625 -35.367188 26.890625 -34.890625 C 25.398438 -34.421875 24.015625 -33.585938 22.734375 -32.390625 C 21.460938 -31.203125 20.425781 -29.523438 19.625 -27.359375 C 18.832031 -25.191406 18.4375 -22.425781 18.4375 -19.0625 L 18.4375 0 Z M 5.921875 0 "/></g></g></g><g fill="#040209" fill-opacity="1"><g transform="translate(141.030895, 218.249986)"><g><path d="M 0.375 0 L 23.5625 -60.46875 L 40.0625 -60.46875 L 63.15625 0 L 49.21875 0 L 31.75 -51.0625 L 14.3125 0 Z M 15.53125 -16.546875 L 15.53125 -26.921875 L 47.875 -26.921875 L 47.875 -16.546875 Z M 15.53125 -16.546875 "/></g></g></g><g fill="#040209" fill-opacity="1"><g transform="translate(202.79731, 218.249986)"><g><path d="M 3.484375 0 L 3.484375 -10.703125 L 11.84375 -10.703125 L 11.84375 -49.765625 L 3.484375 -49.765625 L 3.484375 -60.46875 L 33.171875 -60.46875 L 33.171875 -49.765625 L 24.8125 -49.765625 L 24.8125 -10.703125 L 33.171875 -10.703125 L 33.171875 0 Z M 3.484375 0 "/></g></g></g><g fill="#040209" fill-opacity="1"><g transform="translate(237.733156, 218.249986)"><g><path d="M 18.8125 0 C 15.457031 0 12.875 -0.816406 11.0625 -2.453125 C 9.257812 -4.085938 8.359375 -6.445312 8.359375 -9.53125 L 8.359375 -36.203125 L 1.890625 -36.203125 L 1.890625 -45.359375 L 8.359375 -45.359375 L 8.359375 -54.25 L 20.875 -57.28125 L 20.875 -45.359375 L 29.265625 -45.359375 L 29.265625 -36.203125 L 20.875 -36.203125 L 20.875 -11.5 C 20.875 -10.582031 21.003906 -9.960938 21.265625 -9.640625 C 21.535156 -9.316406 22.101562 -9.15625 22.96875 -9.15625 L 29.90625 -9.15625 L 29.90625 0 Z M 18.8125 0 "/></g></g></g><g fill="#040209" fill-opacity="1"><g transform="translate(268.680095, 218.249986)"><g><path d="M 26.578125 1.09375 C 22.128906 1.09375 18.132812 0.128906 14.59375 -1.796875 C 11.050781 -3.734375 8.25 -6.484375 6.1875 -10.046875 C 4.132812 -13.617188 3.109375 -17.84375 3.109375 -22.71875 C 3.109375 -27.5625 4.125 -31.757812 6.15625 -35.3125 C 8.1875 -38.875 10.957031 -41.617188 14.46875 -43.546875 C 17.976562 -45.472656 21.988281 -46.4375 26.5 -46.4375 C 28.988281 -46.4375 31.515625 -46.054688 34.078125 -45.296875 C 36.640625 -44.546875 39 -43.210938 41.15625 -41.296875 C 43.3125 -39.378906 45.046875 -36.707031 46.359375 -33.28125 C 47.671875 -29.851562 48.328125 -25.476562 48.328125 -20.15625 L 11.125 -20.15625 L 11.125 -27.296875 L 37.15625 -27.296875 L 35.859375 -25.0625 C 35.640625 -28.09375 35.082031 -30.53125 34.1875 -32.375 C 33.289062 -34.21875 32.15625 -35.5625 30.78125 -36.40625 C 29.40625 -37.25 27.863281 -37.671875 26.15625 -37.671875 C 23.945312 -37.671875 22.097656 -37.039062 20.609375 -35.78125 C 19.128906 -34.519531 18.019531 -32.757812 17.28125 -30.5 C 16.539062 -28.25 16.171875 -25.640625 16.171875 -22.671875 C 16.171875 -18.191406 17.015625 -14.648438 18.703125 -12.046875 C 20.398438 -9.441406 23 -8.140625 26.5 -8.140625 C 28.769531 -8.140625 30.722656 -8.726562 32.359375 -9.90625 C 33.992188 -11.082031 35.242188 -12.875 36.109375 -15.28125 L 47.453125 -12.390625 C 46.390625 -9.253906 44.78125 -6.691406 42.625 -4.703125 C 40.46875 -2.710938 37.992188 -1.25 35.203125 -0.3125 C 32.421875 0.625 29.546875 1.09375 26.578125 1.09375 Z M 26.578125 1.09375 "/></g></g></g></svg>