<svg width="200" height="200" viewBox="0 0 200 200" fill="none" xmlns="http://www.w3.org/2000/svg">
<g clip-path="url(#clip0_13_416)">
<mask id="mask0_13_416" style="mask-type:luminance" maskUnits="userSpaceOnUse" x="-20" y="-20" width="240" height="240">
<path d="M220 -20H-20V220H220V-20Z" fill="black" fill-opacity="0.098"/>
</mask>
<g mask="url(#mask0_13_416)">
<mask id="mask1_13_416" style="mask-type:luminance" maskUnits="userSpaceOnUse" x="0" y="0" width="200" height="200">
<path d="M200 0H0V200H200V0Z" fill="white"/>
</mask>
<g mask="url(#mask1_13_416)">
<mask id="mask2_13_416" style="mask-type:luminance" maskUnits="userSpaceOnUse" x="0" y="0" width="200" height="200">
<path d="M0 0H199.973V199.973H0V0Z" fill="white"/>
</mask>
<g mask="url(#mask2_13_416)">
<path d="M99.9729 1.9729C103.331 1.9729 106.731 4.33123 110.052 8.9729C113.492 13.8125 116.612 20.8521 119.331 29.8125C124.973 48.5312 128.052 73.4125 128.052 99.9312C128.052 126.452 124.973 151.373 119.331 170.052C116.652 179.012 113.492 186.052 110.052 190.892C106.731 195.531 103.331 197.892 99.9729 197.892C96.6125 197.892 93.2125 195.531 89.8917 190.892C86.4521 186.052 83.3312 179.012 80.6125 170.052C74.9729 151.331 71.8917 126.452 71.8917 99.9312C71.8917 73.4125 74.9729 48.4917 80.6125 29.8125C83.2917 20.8521 86.4521 13.8125 89.8917 8.9729C93.2125 4.33123 96.5729 1.9729 99.9729 1.9729ZM99.9729 -0.0270996C83.3729 -0.0270996 69.8917 44.7312 69.8917 99.9729C69.8917 155.212 83.3729 199.973 99.9729 199.973C116.573 199.973 130.052 155.212 130.052 99.9729C130.052 44.7312 116.573 -0.0270996 99.9729 -0.0270996ZM161.531 28.0917C164.931 28.0917 167.531 28.9729 169.252 30.6521C171.652 33.0521 172.373 37.0917 171.412 42.7312C170.412 48.6125 167.652 55.7729 163.212 64.0125C153.973 81.2125 138.531 101.012 119.812 119.773C89.2125 150.373 55.6917 171.773 38.3729 171.773C34.9729 171.773 32.3729 170.892 30.6521 169.212C28.2521 166.812 27.5312 162.773 28.4917 157.131C29.4917 151.252 32.2521 144.092 36.6917 135.852C45.9312 118.652 61.3729 98.8521 80.0917 80.0917C110.692 49.4917 144.212 28.0917 161.531 28.0917ZM161.531 26.0917C144.012 26.0917 110.652 46.7312 78.6917 78.6917C39.6521 117.731 17.4917 158.931 29.2521 170.652C31.3729 172.773 34.4917 173.812 38.3729 173.812C55.8917 173.812 89.2521 153.173 121.212 121.212C160.252 82.1729 182.373 40.9729 170.652 29.2521C168.531 27.1312 165.412 26.0917 161.531 26.0917ZM99.9729 71.8917C126.492 71.8917 151.412 74.9729 170.092 80.6125C179.052 83.2917 186.092 86.4521 190.931 89.8917C195.573 93.2125 197.931 96.6125 197.931 99.9729C197.931 103.331 195.573 106.731 190.931 110.052C186.092 113.492 179.052 116.612 170.092 119.331C151.373 124.973 126.492 128.052 99.9729 128.052C73.4521 128.052 48.5312 124.973 29.8521 119.331C20.8917 116.652 13.8521 113.492 9.01248 110.052C4.33123 106.731 1.9729 103.331 1.9729 99.9729C1.9729 96.6125 4.33123 93.2125 8.9729 89.8917C13.8125 86.4521 20.8521 83.3312 29.8125 80.6125C48.5312 74.9729 73.4521 71.8917 99.9729 71.8917ZM99.9729 69.8917C44.7312 69.8917 -0.0270996 83.3312 -0.0270996 99.9729C-0.0270996 116.612 44.7312 130.052 99.9729 130.052C155.212 130.052 199.973 116.573 199.973 99.9729C199.973 83.3729 155.173 69.8917 99.9729 69.8917ZM38.3729 28.0917C55.6917 28.0917 89.1729 49.4917 119.812 80.0917C138.573 98.8521 153.973 118.652 163.212 135.852C167.652 144.092 170.412 151.292 171.412 157.131C172.373 162.773 171.652 166.852 169.252 169.212C167.531 170.931 164.973 171.773 161.531 171.773C144.212 171.773 110.731 150.373 80.0917 119.773C61.3312 101.012 45.9312 81.2125 36.6917 64.0125C32.2521 55.7729 29.4917 48.5729 28.4917 42.7312C27.5312 37.0917 28.2521 33.0125 30.6521 30.6521C32.3729 28.9729 34.9729 28.0917 38.3729 28.0917ZM38.3729 26.0917C34.4917 26.0917 31.3729 27.0917 29.2521 29.2521C17.4917 41.0125 39.6521 82.1729 78.6917 121.212C110.652 153.173 144.012 173.812 161.531 173.812C165.412 173.812 168.531 172.812 170.652 170.652C182.412 158.892 160.252 117.731 121.212 78.6917C89.2917 46.7312 55.8917 26.0917 38.3729 26.0917Z" fill="#CC66FF"/>
</g>
</g>
</g>
<path d="M43.4133 116.983C40.88 116.983 38.6821 116.469 36.8216 115.442C34.9591 114.408 33.53 112.946 32.53 111.05C31.53 109.15 31.03 106.896 31.03 104.283C31.03 101.683 31.53 99.4375 32.53 97.5417C33.53 95.6479 34.955 94.1896 36.805 93.1667C38.6591 92.1458 40.8571 91.6333 43.3966 91.6333C45.2175 91.6333 46.9133 91.9625 48.48 92.6167C50.0466 93.2729 51.3758 94.2479 52.4716 95.5417C53.5716 96.8312 54.3237 98.4312 54.73 100.342L48.4133 101.683C48.0841 99.9667 47.4883 98.6812 46.6216 97.825C45.755 96.9646 44.6633 96.5333 43.3466 96.5333C41.5404 96.5333 40.2008 97.25 39.33 98.6833C38.4571 100.117 38.0216 102.015 38.0216 104.375C38.0216 106.721 38.455 108.59 39.3216 109.983C40.1883 111.379 41.5383 112.075 43.3716 112.075C44.6425 112.075 45.7154 111.692 46.5883 110.925C47.4591 110.154 48.0987 108.979 48.505 107.4L54.6133 108.542C54.3133 110.004 53.7966 111.267 53.0633 112.333C52.3341 113.4 51.4591 114.275 50.4383 114.958C49.4154 115.637 48.3071 116.142 47.1133 116.475C45.9175 116.812 44.6841 116.983 43.4133 116.983Z" fill="#040209"/>
<path d="M58.2868 116.4V92.2083H64.7368V97.6583L64.4701 96.9417C65.2305 95.1479 66.3055 93.8146 67.6951 92.9417C69.0826 92.0708 70.5972 91.6333 72.2368 91.6333C72.7034 91.6333 73.1743 91.6708 73.6534 91.7417C74.1305 91.8146 74.6076 91.9417 75.0868 92.125L74.5701 97.8083C73.5972 97.5417 72.6639 97.4083 71.7701 97.4083C71.0368 97.4083 70.2701 97.5375 69.4701 97.7917C68.6743 98.0417 67.9368 98.4875 67.2534 99.125C66.5743 99.7583 66.0222 100.654 65.5951 101.808C65.1722 102.965 64.9618 104.44 64.9618 106.233V116.4H58.2868Z" fill="#040209"/>
<path d="M75.4165 116.4L87.7831 84.15H96.5831L108.9 116.4H101.466L92.1498 89.1667L82.8498 116.4H75.4165ZM83.4998 107.575V102.042H100.75V107.575H83.4998Z" fill="#040209"/>
<path d="M110.017 116.4V110.692H114.475V89.8583H110.017V84.15H125.85V89.8583H121.392V110.692H125.85V116.4H110.017Z" fill="#040209"/>
<path d="M136.824 116.4C135.035 116.4 133.658 115.965 132.691 115.092C131.729 114.221 131.249 112.962 131.249 111.317V97.0916H127.799V92.2083H131.249V87.4666L137.924 85.85V92.2083H142.399V97.0916H137.924V110.267C137.924 110.756 137.993 111.087 138.133 111.258C138.276 111.431 138.579 111.517 139.041 111.517H142.741V116.4H136.824Z" fill="#040209"/>
<path d="M157.471 116.983C155.098 116.983 152.967 116.469 151.079 115.442C149.19 114.408 147.696 112.942 146.596 111.042C145.5 109.137 144.954 106.883 144.954 104.283C144.954 101.7 145.496 99.4625 146.579 97.5667C147.663 95.6667 149.14 94.2042 151.013 93.175C152.884 92.1479 155.023 91.6333 157.429 91.6333C158.756 91.6333 160.104 91.8375 161.471 92.2417C162.838 92.6417 164.096 93.3542 165.246 94.375C166.396 95.3979 167.321 96.8229 168.021 98.65C168.721 100.479 169.071 102.812 169.071 105.65H149.229V101.842H163.113L162.421 103.033C162.304 101.417 162.006 100.117 161.529 99.1333C161.05 98.15 160.446 97.4333 159.713 96.9833C158.979 96.5333 158.156 96.3083 157.246 96.3083C156.067 96.3083 155.081 96.6458 154.288 97.3167C153.498 97.9896 152.906 98.9292 152.513 100.133C152.117 101.333 151.921 102.725 151.921 104.308C151.921 106.698 152.371 108.587 153.271 109.975C154.175 111.365 155.563 112.058 157.429 112.058C158.64 112.058 159.681 111.746 160.554 111.117C161.425 110.49 162.092 109.533 162.554 108.25L168.604 109.792C168.038 111.465 167.179 112.831 166.029 113.892C164.879 114.954 163.559 115.733 162.071 116.233C160.588 116.733 159.054 116.983 157.471 116.983Z" fill="#040209"/>
</g>
<defs>
<clipPath id="clip0_13_416">
<rect width="200" height="200" rx="8" fill="white"/>
</clipPath>
</defs>
</svg>
