<svg width="500" height="500" viewBox="0 0 500 500" fill="none" xmlns="http://www.w3.org/2000/svg">
<mask id="mask0_68_2654" style="mask-type:luminance" maskUnits="userSpaceOnUse" x="8" y="0" width="484" height="484">
<path d="M8.07293 0H491.927V483.854H8.07293V0Z" fill="white"/>
</mask>
<g mask="url(#mask0_68_2654)">
<path d="M250 4.8177C258.138 4.8177 266.341 10.5469 274.414 21.7448C282.682 33.4635 290.234 50.5208 296.81 72.2005C310.482 117.513 317.904 177.669 317.904 241.862C317.904 305.99 310.482 366.276 296.81 411.458C290.365 433.138 282.682 450.195 274.414 461.914C266.341 473.112 258.138 478.841 250 478.841C241.862 478.841 233.659 473.112 225.586 461.914C217.318 450.195 209.766 433.138 203.19 411.458C189.518 366.211 182.096 305.99 182.096 241.862C182.096 177.669 189.518 117.383 203.19 72.2005C209.635 50.5208 217.318 33.4635 225.586 21.7448C233.659 10.5469 241.797 4.8177 250 4.8177ZM250 0C209.831 0 177.214 108.268 177.214 241.927C177.214 375.586 209.831 483.854 250 483.854C290.169 483.854 322.786 375.586 322.786 241.927C322.786 108.268 290.169 0 250 0ZM398.958 68.0338C407.161 68.0338 413.477 70.1823 417.643 74.2188C423.437 80.013 425.13 89.7786 422.852 103.451C420.443 117.708 413.737 135.026 402.995 154.948C380.664 196.549 343.294 244.466 297.982 289.844C223.958 363.867 142.839 415.625 100.977 415.625C92.7734 415.625 86.4583 413.542 82.2917 409.44C76.4974 403.646 74.7396 393.88 77.0833 380.208C79.4922 366.016 86.1328 348.698 96.875 328.711C119.271 287.109 156.641 239.258 201.888 193.815C275.911 119.792 357.031 68.0338 398.958 68.0338ZM398.958 63.2161C356.576 63.2161 275.846 113.151 198.503 190.43C104.036 284.896 50.4557 384.57 78.9063 412.956C84.0495 418.034 91.6016 420.573 100.977 420.573C143.359 420.573 224.089 370.638 301.367 293.294C395.833 198.893 449.349 99.2188 421.029 70.8333C415.885 65.6901 408.333 63.2161 398.958 63.2161ZM250 174.023C314.193 174.023 374.479 181.445 419.661 195.117C441.341 201.562 458.333 209.245 470.052 217.578C481.315 225.586 486.979 233.789 486.979 241.927C486.979 250.065 481.315 258.268 470.052 266.341C458.333 274.674 441.341 282.161 419.661 288.802C374.349 302.409 314.193 309.896 250 309.896C185.807 309.896 125.521 302.409 80.3385 288.802C58.6589 282.292 41.6667 274.674 29.9479 266.341C18.6198 258.268 12.8906 250.065 12.8906 241.927C12.8906 233.789 18.6198 225.586 29.8177 217.578C41.5365 209.245 58.5938 201.693 80.2734 195.117C125.521 181.445 185.807 174.023 250 174.023ZM250 169.141C116.341 169.141 8.07293 201.693 8.07293 241.927C8.07293 282.161 116.341 314.714 250 314.714C383.659 314.714 491.927 282.096 491.927 241.927C491.927 201.758 383.529 169.141 250 169.141ZM100.977 68.0338C142.839 68.0338 223.893 119.792 297.982 193.815C343.359 239.258 380.664 287.109 402.995 328.711C413.737 348.698 420.443 366.081 422.852 380.208C425.13 393.88 423.437 403.711 417.643 409.44C413.477 413.607 407.227 415.625 398.958 415.625C357.031 415.625 276.042 363.867 201.888 289.844C156.51 244.466 119.271 196.549 96.875 154.948C86.1328 135.026 79.4922 117.578 77.0833 103.451C74.7396 89.7786 76.4974 79.9479 82.2917 74.2188C86.4583 70.1823 92.7734 68.0338 100.977 68.0338ZM100.977 63.2161C91.6016 63.2161 84.0495 65.625 78.9063 70.8333C50.4557 99.2838 104.036 198.893 198.503 293.294C275.846 370.638 356.576 420.573 398.958 420.573C408.333 420.573 415.885 418.164 421.029 412.956C449.479 384.505 395.833 284.896 301.367 190.43C224.154 113.151 143.359 63.2161 100.977 63.2161Z" fill="#AA96DA" fill-opacity="0.15"/>
</g>
<path d="M84.5 298.562C77.6667 298.562 71.7708 297.125 66.8125 294.25C61.8542 291.375 58.0208 287.292 55.3125 282C52.6458 276.708 51.3125 270.458 51.3125 263.25C51.3125 256 52.6458 249.729 55.3125 244.438C58.0208 239.146 61.8542 235.083 66.8125 232.25C71.7708 229.375 77.6458 227.938 84.4375 227.938C89.3958 227.938 93.9583 228.833 98.125 230.625C102.292 232.417 105.833 235.062 108.75 238.562C111.667 242.062 113.708 246.354 114.875 251.438L99.875 254.812C98.875 249.854 97.0417 246.104 94.375 243.562C91.75 240.979 88.4167 239.688 84.375 239.688C78.875 239.688 74.7292 241.812 71.9375 246.062C69.1458 250.312 67.75 256.083 67.75 263.375C67.75 270.667 69.125 276.396 71.875 280.562C74.6667 284.729 78.8333 286.812 84.375 286.812C88.3333 286.812 91.6458 285.625 94.3125 283.25C96.9792 280.875 98.875 277.333 100 272.625L114.625 275.75C113.708 279.583 112.292 282.938 110.375 285.812C108.458 288.646 106.146 291.021 103.438 292.938C100.771 294.812 97.8333 296.208 94.625 297.125C91.4167 298.083 88.0417 298.562 84.5 298.562ZM128.125 297V229.5H142.938V244.375L142.375 242.5C144.458 237.625 147.458 233.979 151.375 231.562C155.292 229.146 159.458 227.938 163.875 227.938C165.125 227.938 166.375 228.042 167.625 228.25C168.917 228.458 170.146 228.812 171.312 229.312L169.938 242.875C167.396 242.125 164.917 241.75 162.5 241.75C160.708 241.75 158.708 242.083 156.5 242.75C154.333 243.375 152.271 244.562 150.312 246.312C148.354 248.062 146.729 250.583 145.438 253.875C144.188 257.125 143.562 261.354 143.562 266.562V297H128.125ZM174.375 297V283.812H186.625V220.188H174.375V207H215.062V220.188H202.812V283.812H215.062V297H174.375ZM221.688 297L257.562 207H276.938L312.688 297H295.312L267.188 220.125L239.062 297H221.688ZM243.062 270.5V257.438H291.188V270.5H243.062ZM336.688 297C332.604 297 329.354 295.917 326.938 293.75C324.521 291.542 323.312 288.521 323.312 284.688V241.25H313.188V229.5H323.312V215.938L338.75 212.312V229.5H351.625V241.25H338.75V281.75C338.75 283.167 338.938 284.104 339.312 284.562C339.729 285.021 340.583 285.25 341.875 285.25H352.188V297H336.688ZM393.438 298.562C386.896 298.562 381.104 297.125 376.062 294.25C371.021 291.375 367.062 287.292 364.188 282C361.312 276.708 359.875 270.458 359.875 263.25C359.875 256.042 361.292 249.792 364.125 244.5C366.958 239.208 370.875 235.125 375.875 232.25C380.875 229.375 386.646 227.938 393.188 227.938C396.854 227.938 400.542 228.5 404.25 229.625C408 230.75 411.417 232.75 414.5 235.625C417.625 238.458 420.146 242.396 422.062 247.438C423.979 252.438 424.938 258.792 424.938 266.5H369.812V256.688H411.188L408.812 260.25C408.562 255.208 407.688 251.167 406.188 248.125C404.729 245.042 402.833 242.812 400.5 241.438C398.208 240.021 395.646 239.312 392.812 239.312C389.229 239.312 386.208 240.292 383.75 242.25C381.292 244.167 379.417 246.938 378.125 250.562C376.875 254.146 376.25 258.396 376.25 263.312C376.25 270.646 377.688 276.396 380.562 280.562C383.438 284.688 387.688 286.75 393.312 286.75C397.146 286.75 400.417 285.771 403.125 283.812C405.833 281.854 407.854 278.938 409.188 275.062L423.562 279.062C421.938 283.438 419.625 287.062 416.625 289.938C413.625 292.812 410.125 294.979 406.125 296.438C402.125 297.854 397.896 298.562 393.438 298.562Z" fill="white"/>
</svg>
