<svg xmlns="http://www.w3.org/2000/svg" xmlns:xlink="http://www.w3.org/1999/xlink" width="40" zoomAndPan="magnify" viewBox="0 0 30 30.000001" height="40" preserveAspectRatio="xMidYMid meet" version="1.0"><defs><clipPath id="e5fff071ef"><path d="M 0.484375 0 L 29.515625 0 L 29.515625 29.03125 L 0.484375 29.03125 Z M 0.484375 0 " clip-rule="nonzero"/></clipPath></defs><g clip-path="url(#e5fff071ef)"><path fill="#ffffff" d="M 0.484375 0 L 29.515625 0 L 29.515625 36.289062 L 0.484375 36.289062 Z M 0.484375 0 " fill-opacity="1" fill-rule="nonzero"/><path fill="#ffffff" d="M 0.484375 0 L 29.515625 0 L 29.515625 29.03125 L 0.484375 29.03125 Z M 0.484375 0 " fill-opacity="1" fill-rule="nonzero"/><path fill="#040209" d="M 0.484375 0 L 29.515625 0 L 29.515625 29.03125 L 0.484375 29.03125 Z M 0.484375 0 " fill-opacity="1" fill-rule="nonzero"/><path fill="#aa96da" d="M 15 0.289062 C 15.488281 0.289062 15.980469 0.632812 16.464844 1.304688 C 16.960938 2.007812 17.414062 3.03125 17.808594 4.332031 C 18.628906 7.050781 19.074219 10.660156 19.074219 14.511719 C 19.074219 18.359375 18.628906 21.976562 17.808594 24.6875 C 17.421875 25.988281 16.960938 27.011719 16.464844 27.714844 C 15.980469 28.386719 15.488281 28.730469 15 28.730469 C 14.511719 28.730469 14.019531 28.386719 13.535156 27.714844 C 13.039062 27.011719 12.585938 25.988281 12.191406 24.6875 C 11.371094 21.972656 10.925781 18.359375 10.925781 14.511719 C 10.925781 10.660156 11.371094 7.042969 12.191406 4.332031 C 12.578125 3.03125 13.039062 2.007812 13.535156 1.304688 C 14.019531 0.632812 14.507812 0.289062 15 0.289062 M 15 0 C 12.589844 0 10.632812 6.496094 10.632812 14.515625 C 10.632812 22.535156 12.589844 29.03125 15 29.03125 C 17.410156 29.03125 19.367188 22.535156 19.367188 14.515625 C 19.367188 6.496094 17.410156 0 15 0 Z M 23.9375 3.792969 L 23.9375 4.082031 C 24.429688 4.082031 24.808594 4.210938 25.058594 4.453125 C 25.40625 4.800781 25.507812 5.386719 25.371094 6.207031 C 25.226562 7.0625 24.824219 8.101562 24.179688 9.296875 C 22.839844 11.792969 20.597656 14.667969 17.878906 17.390625 C 13.4375 21.832031 8.570312 24.9375 6.058594 24.9375 C 5.566406 24.9375 5.1875 24.8125 4.9375 24.566406 C 4.589844 24.21875 4.484375 23.632812 4.625 22.8125 C 4.769531 21.960938 5.167969 20.921875 5.8125 19.722656 C 7.15625 17.226562 9.398438 14.355469 12.113281 11.628906 C 16.554688 7.1875 21.421875 4.082031 23.9375 4.082031 L 23.9375 3.792969 M 23.9375 3.792969 C 21.394531 3.792969 16.550781 6.789062 11.910156 11.425781 C 6.242188 17.09375 3.027344 23.074219 4.734375 24.777344 C 5.042969 25.082031 5.496094 25.234375 6.058594 25.234375 C 8.601562 25.234375 13.445312 22.238281 18.082031 17.597656 C 23.75 11.933594 26.960938 5.953125 25.261719 4.25 C 24.953125 3.941406 24.5 3.792969 23.9375 3.792969 Z M 15 10.441406 C 18.851562 10.441406 22.46875 10.886719 25.179688 11.707031 C 26.480469 12.09375 27.5 12.554688 28.203125 13.054688 C 28.878906 13.535156 29.21875 14.027344 29.21875 14.515625 C 29.21875 15.003906 28.878906 15.496094 28.203125 15.980469 C 27.5 16.480469 26.480469 16.929688 25.179688 17.328125 C 22.460938 18.144531 18.851562 18.59375 15 18.59375 C 11.148438 18.59375 7.53125 18.144531 4.820312 17.328125 C 3.519531 16.9375 2.5 16.480469 1.796875 15.980469 C 1.117188 15.496094 0.773438 15.003906 0.773438 14.515625 C 0.773438 14.027344 1.117188 13.535156 1.789062 13.054688 C 2.492188 12.554688 3.515625 12.101562 4.816406 11.707031 C 7.53125 10.886719 11.148438 10.441406 15 10.441406 M 15 10.148438 C 6.980469 10.148438 0.484375 12.101562 0.484375 14.515625 C 0.484375 16.929688 6.980469 18.882812 15 18.882812 C 23.019531 18.882812 29.515625 16.925781 29.515625 14.515625 C 29.515625 12.105469 23.011719 10.148438 15 10.148438 Z M 6.058594 4.082031 C 8.570312 4.082031 13.433594 7.1875 17.878906 11.628906 C 20.601562 14.355469 22.839844 17.226562 24.179688 19.722656 C 24.824219 20.921875 25.226562 21.964844 25.371094 22.8125 C 25.507812 23.632812 25.40625 24.222656 25.058594 24.566406 C 24.808594 24.816406 24.433594 24.9375 23.9375 24.9375 C 21.421875 24.9375 16.5625 21.832031 12.113281 17.390625 C 9.390625 14.667969 7.15625 11.792969 5.8125 9.296875 C 5.167969 8.101562 4.769531 7.054688 4.625 6.207031 C 4.484375 5.386719 4.589844 4.796875 4.9375 4.453125 C 5.1875 4.210938 5.566406 4.082031 6.058594 4.082031 M 6.058594 3.792969 C 5.496094 3.792969 5.042969 3.9375 4.734375 4.25 C 3.027344 5.957031 6.242188 11.933594 11.910156 17.597656 C 16.550781 22.238281 21.394531 25.234375 23.9375 25.234375 C 24.5 25.234375 24.953125 25.089844 25.261719 24.777344 C 26.96875 23.070312 23.75 17.09375 18.082031 11.425781 C 13.449219 6.789062 8.601562 3.792969 6.058594 3.792969 Z M 6.058594 3.792969 " fill-opacity="1" fill-rule="nonzero"/></g></svg>