<svg width="32" height="32" viewBox="0 0 32 32" fill="none" xmlns="http://www.w3.org/2000/svg">
<g clip-path="url(#clip0_74_2571)">
<mask id="mask0_74_2571" style="mask-type:luminance" maskUnits="userSpaceOnUse" x="0" y="0" width="32" height="32">
<path d="M0 0H32V32H0V0Z" fill="white"/>
</mask>
<g mask="url(#mask0_74_2571)">
<path d="M0 0H32V40H0V0Z" fill="white"/>
<path d="M0 0H32V32H0V0Z" fill="white"/>
<path d="M0 0H32V32H0V0Z" fill="white"/>
</g>
<mask id="mask1_74_2571" style="mask-type:luminance" maskUnits="userSpaceOnUse" x="0" y="0" width="32" height="32">
<path d="M0 0H32V32H0V0Z" fill="white"/>
</mask>
<g mask="url(#mask1_74_2571)">
<mask id="mask2_74_2571" style="mask-type:luminance" maskUnits="userSpaceOnUse" x="0" y="0" width="32" height="33">
<path d="M6.43203 0H25.568C29.1216 0 32 2.8676 32 6.39828V25.7696C32 29.3046 29.1216 32.1722 25.568 32.1722H6.43203C2.8784 32.1722 0 29.3046 0 25.7696V6.39828C0 2.8676 2.8784 0 6.43203 0Z" fill="white"/>
</mask>
<g mask="url(#mask2_74_2571)">
<path d="M0 0H31.9134V32.2756H0V0Z" fill="#040209"/>
</g>
</g>
<path d="M16.1708 16.675C16.1458 16.675 16.1292 16.6667 16.1125 16.6542C16.0958 16.6375 16.0875 16.6208 16.0875 16.6V16.2042H16V16.1333H16.0875V16.0167L16.175 16V16.1333H16.2792V16.2042H16.175V16.575C16.175 16.5875 16.175 16.5958 16.1792 16.6C16.1792 16.6042 16.1875 16.6042 16.2 16.6042H16.2792V16.675H16.1708Z" fill="black"/>
<path d="M16.5438 28.6688C13.9656 28.6688 11.7344 28.1484 9.85 27.1125C7.975 26.0766 6.53125 24.5953 5.51875 22.6688C4.50625 20.7469 4 18.4641 4 15.825C4 13.1906 4.50625 10.9125 5.51875 9C6.53125 7.07813 7.975 5.59687 9.85 4.55625C11.725 3.52031 13.9469 3 16.525 3C18.3625 3 20.0734 3.3375 21.6625 4.0125C23.2469 4.67813 24.5969 5.6625 25.7125 6.975C26.8234 8.27813 27.5875 9.89531 28 11.8313L21.5875 13.1813C21.2594 11.4469 20.6594 10.1438 19.7875 9.28125C18.9109 8.40937 17.8047 7.96875 16.4688 7.96875C14.6406 7.96875 13.2859 8.69531 12.4 10.1438C11.5094 11.5969 11.0688 13.5188 11.0688 15.9188C11.0688 18.2813 11.5047 20.175 12.3813 21.6C13.2672 23.0156 14.6359 23.7188 16.4875 23.7188C17.7719 23.7188 18.8594 23.3344 19.75 22.5563C20.6359 21.7688 21.2781 20.5781 21.6813 18.975L27.8688 20.1188C27.5688 21.6094 27.0484 22.8938 26.3125 23.9813C25.5719 25.0594 24.6859 25.9406 23.65 26.625C22.6094 27.3141 21.4844 27.825 20.275 28.1625C19.075 28.5 17.8281 28.6688 16.5438 28.6688Z" fill="#AA96DA"/>
</g>
<defs>
<clipPath id="clip0_74_2571">
<rect width="32" height="32" rx="8" fill="white"/>
</clipPath>
</defs>
</svg>
