<svg width="32" height="32" viewBox="0 0 32 32" fill="none" xmlns="http://www.w3.org/2000/svg">
<g clip-path="url(#clip0_74_2571)">
<mask id="mask0_74_2571" style="mask-type:luminance" maskUnits="userSpaceOnUse" x="0" y="0" width="32" height="32">
<path d="M0 0H32V32H0V0Z" fill="white"/>
</mask>
<g mask="url(#mask0_74_2571)">
<path d="M0 0H32V40H0V0Z" fill="white"/>
<path d="M0 0H32V32H0V0Z" fill="white"/>
<path d="M0 0H32V32H0V0Z" fill="white"/>
</g>
<mask id="mask1_74_2571" style="mask-type:luminance" maskUnits="userSpaceOnUse" x="0" y="0" width="32" height="32">
<path d="M0 0H32V32H0V0Z" fill="white"/>
</mask>
<g mask="url(#mask1_74_2571)">
<mask id="mask2_74_2571" style="mask-type:luminance" maskUnits="userSpaceOnUse" x="0" y="0" width="32" height="33">
<path d="M6.43203 0H25.568C29.1216 0 32 2.8676 32 6.39828V25.7696C32 29.3046 29.1216 32.1722 25.568 32.1722H6.43203C2.8784 32.1722 0 29.3046 0 25.7696V6.39828C0 2.8676 2.8784 0 6.43203 0Z" fill="white"/>
</mask>
<g mask="url(#mask2_74_2571)">
<path d="M0 0H31.9134V32.2756H0V0Z" fill="#040209"/>
</g>
</g>
<path d="M16.1708 16.675C16.1458 16.675 16.1292 16.6667 16.1125 16.6542C16.0958 16.6375 16.0875 16.6208 16.0875 16.6V16.2042H16V16.1333H16.0875V16.0167L16.175 16V16.1333H16.2792V16.2042H16.175V16.575C16.175 16.5875 16.175 16.5958 16.1792 16.6C16.1792 16.6042 16.1875 16.6042 16.2 16.6042H16.2792V16.675H16.1708Z" fill="black"/>
<path d="M16.7736 26C14.7648 26 13.0263 25.5946 11.5581 24.7874C10.0972 23.9803 8.97224 22.8262 8.18335 21.3251C7.39445 19.8276 7 18.0489 7 15.9927C7 13.9401 7.39445 12.1651 8.18335 10.6749C8.97224 9.1775 10.0972 8.02337 11.5581 7.21256C13.019 6.40541 14.7502 6 16.7589 6C18.1907 6 19.5237 6.26297 20.7619 6.7889C21.9963 7.30752 23.0482 8.07451 23.9175 9.09715C24.7831 10.1125 25.3784 11.3725 25.6998 12.8809L20.7034 13.9328C20.4478 12.5814 19.9803 11.5661 19.301 10.8941C18.618 10.2148 17.756 9.87144 16.7151 9.87144C15.2907 9.87144 14.2352 10.4375 13.5449 11.5661C12.851 12.6983 12.5077 14.1958 12.5077 16.0657C12.5077 17.9065 12.8473 19.382 13.5303 20.4923C14.2206 21.5953 15.2871 22.1432 16.7297 22.1432C17.7305 22.1432 18.5778 21.8437 19.2717 21.2374C19.962 20.6238 20.4624 19.6961 20.7765 18.447L25.5975 19.3382C25.3638 20.4996 24.9584 21.5004 24.385 22.3477C23.8079 23.1877 23.1176 23.8744 22.3104 24.4076C21.4996 24.9445 20.6231 25.3426 19.6808 25.6056C18.7458 25.8685 17.7743 26 16.7736 26Z" fill="#CC66FF"/>
</g>
<defs>
<clipPath id="clip0_74_2571">
<rect width="32" height="32" rx="8" fill="white"/>
</clipPath>
</defs>
</svg>
