<svg xmlns="http://www.w3.org/2000/svg" xmlns:xlink="http://www.w3.org/1999/xlink" width="40" zoomAndPan="magnify" viewBox="0 0 30 30.000001" height="40" preserveAspectRatio="xMidYMid meet" version="1.0"><defs><g/><clipPath id="c5af4b86e1"><path d="M 0.484375 0 L 29.515625 0 L 29.515625 29.03125 L 0.484375 29.03125 Z M 0.484375 0 " clip-rule="nonzero"/></clipPath><clipPath id="2f14b04695"><path d="M 0.636719 0 L 29.515625 0 L 29.515625 29.03125 L 0.636719 29.03125 Z M 0.636719 0 " clip-rule="nonzero"/></clipPath><clipPath id="430b84f44c"><path d="M 6.441406 0 L 23.710938 0 C 26.917969 0 29.515625 2.601562 29.515625 5.804688 L 29.515625 23.378906 C 29.515625 26.585938 26.917969 29.1875 23.710938 29.1875 L 6.441406 29.1875 C 3.234375 29.1875 0.636719 26.585938 0.636719 23.378906 L 0.636719 5.804688 C 0.636719 2.601562 3.234375 0 6.441406 0 " clip-rule="nonzero"/></clipPath></defs><g clip-path="url(#c5af4b86e1)"><path fill="#ffffff" d="M 0.484375 0 L 29.515625 0 L 29.515625 36.289062 L 0.484375 36.289062 Z M 0.484375 0 " fill-opacity="1" fill-rule="nonzero"/><path fill="#ffffff" d="M 0.484375 0 L 29.515625 0 L 29.515625 29.03125 L 0.484375 29.03125 Z M 0.484375 0 " fill-opacity="1" fill-rule="nonzero"/><path fill="#ffffff" d="M 0.484375 0 L 29.515625 0 L 29.515625 29.03125 L 0.484375 29.03125 Z M 0.484375 0 " fill-opacity="1" fill-rule="nonzero"/></g><g clip-path="url(#2f14b04695)"><g clip-path="url(#430b84f44c)"><path fill="#040209" d="M 0.636719 0 L 29.4375 0 L 29.4375 29.28125 L 0.636719 29.28125 Z M 0.636719 0 " fill-opacity="1" fill-rule="nonzero"/></g></g><g fill="#000000" fill-opacity="1"><g transform="translate(14.914646, 14.516131)"><g><path d="M 0.1875 0 C 0.164062 0 0.148438 -0.0078125 0.132812 -0.0195312 C 0.117188 -0.0351562 0.109375 -0.0507812 0.109375 -0.0703125 L 0.109375 -0.441406 L 0.0273438 -0.441406 L 0.0273438 -0.507812 L 0.109375 -0.507812 L 0.109375 -0.617188 L 0.191406 -0.632812 L 0.191406 -0.507812 L 0.289062 -0.507812 L 0.289062 -0.441406 L 0.191406 -0.441406 L 0.191406 -0.09375 C 0.191406 -0.0820312 0.191406 -0.0742188 0.195312 -0.0703125 C 0.195312 -0.0664062 0.203125 -0.0664062 0.214844 -0.0664062 L 0.289062 -0.0664062 L 0.289062 0 Z M 0.1875 0 "/></g></g></g><g fill="#aa96da" fill-opacity="1"><g transform="translate(3.725256, 24.580724)"><g><path d="M 11.890625 0.484375 C 9.742188 0.484375 7.882812 0.0507812 6.3125 -0.8125 C 4.75 -1.675781 3.546875 -2.910156 2.703125 -4.515625 C 1.859375 -6.117188 1.4375 -8.019531 1.4375 -10.21875 C 1.4375 -12.414062 1.859375 -14.3125 2.703125 -15.90625 C 3.546875 -17.507812 4.75 -18.742188 6.3125 -19.609375 C 7.875 -20.472656 9.726562 -20.90625 11.875 -20.90625 C 13.40625 -20.90625 14.832031 -20.625 16.15625 -20.0625 C 17.476562 -19.507812 18.601562 -18.6875 19.53125 -17.59375 C 20.457031 -16.507812 21.09375 -15.160156 21.4375 -13.546875 L 16.09375 -12.421875 C 15.820312 -13.867188 15.320312 -14.953125 14.59375 -15.671875 C 13.863281 -16.398438 12.941406 -16.765625 11.828125 -16.765625 C 10.304688 -16.765625 9.175781 -16.160156 8.4375 -14.953125 C 7.695312 -13.742188 7.328125 -12.140625 7.328125 -10.140625 C 7.328125 -8.171875 7.691406 -6.59375 8.421875 -5.40625 C 9.160156 -4.226562 10.300781 -3.640625 11.84375 -3.640625 C 12.914062 -3.640625 13.820312 -3.960938 14.5625 -4.609375 C 15.300781 -5.265625 15.835938 -6.257812 16.171875 -7.59375 L 21.328125 -6.640625 C 21.078125 -5.398438 20.644531 -4.328125 20.03125 -3.421875 C 19.414062 -2.523438 18.675781 -1.789062 17.8125 -1.21875 C 16.945312 -0.644531 16.007812 -0.21875 15 0.0625 C 14 0.34375 12.960938 0.484375 11.890625 0.484375 Z M 11.890625 0.484375 "/></g></g></g></svg>